<svg width="28" height="28" viewBox="0 0 28 28" fill="none" xmlns="http://www.w3.org/2000/svg">
<path d="M13.9905 24.64L4.02047 14.43C1.55047 11.9 1.55047 7.78999 4.02047 5.25999C5.22047 4.02999 6.81047 3.35999 8.50047 3.35999C10.1905 3.35999 11.7805 4.02999 12.9805 5.25999L14.0005 6.29999L15.0205 5.25999C16.2205 4.03999 17.8105 3.35999 19.5005 3.35999C21.1905 3.35999 22.7805 4.02999 23.9805 5.25999C26.4505 7.78999 26.4505 11.9 23.9805 14.43L14.0105 24.64H13.9905ZM8.50047 4.75999C7.19047 4.75999 5.96047 5.27999 5.03047 6.23999C3.09047 8.22999 3.09047 11.46 5.03047 13.45L14.0005 22.64L22.9705 13.45C24.9105 11.46 24.9105 8.21999 22.9705 6.23999C22.0405 5.28999 20.8105 4.75999 19.5005 4.75999C18.1905 4.75999 16.9605 5.27999 16.0305 6.23999L14.0105 8.30999L11.9905 6.23999C11.0605 5.28999 9.83047 4.75999 8.51047 4.75999H8.50047Z" fill="white"/>
</svg>
