<svg width="16" height="16" viewBox="0 0 16 16" fill="none" xmlns="http://www.w3.org/2000/svg">
<path d="M8.59708 2.70049C8.59708 2.45196 8.32845 2.25049 7.99708 2.25049C7.66571 2.25049 7.39708 2.45196 7.39708 2.70049V7.65039H2.44707C2.19854 7.65039 1.99707 7.91902 1.99707 8.25039C1.99707 8.58176 2.19854 8.85039 2.44707 8.85039H7.39708V13.8005C7.39708 14.049 7.66571 14.2505 7.99708 14.2505C8.32845 14.2505 8.59708 14.049 8.59708 13.8005V8.85039H13.5471C13.7956 8.85039 13.9971 8.58176 13.9971 8.25039C13.9971 7.91902 13.7956 7.65039 13.5471 7.65039H8.59708V2.70049Z" fill="#111111"/>
</svg>
